<svg width="256" height="256" viewBox="0 0 256 256" fill="none" xmlns="http://www.w3.org/2000/svg">
<rect width="256" height="256" rx="36" fill="black"/>
<path d="M82.25 181.75C74.55 181.75 67.6 180.25 61.4 177.25C55.2 174.25 49.85 170.2 45.35 165.1C40.85 159.9 37.35 154.1 34.85 147.7C32.45 141.2 31.25 134.55 31.25 127.75C31.25 120.65 32.55 113.9 35.15 107.5C37.75 101 41.35 95.25 45.95 90.25C50.55 85.15 55.95 81.15 62.15 78.25C68.45 75.25 75.25 73.75 82.55 73.75C90.15 73.75 97.05 75.3 103.25 78.4C109.55 81.5 114.9 85.65 119.3 90.85C123.8 96.05 127.25 101.85 129.65 108.25C132.15 114.65 133.4 121.2 133.4 127.9C133.4 135 132.1 141.8 129.5 148.3C127 154.7 123.45 160.45 118.85 165.55C114.25 170.55 108.8 174.5 102.5 177.4C96.3 180.3 89.55 181.75 82.25 181.75ZM48.35 127.75C48.35 132.75 49.15 137.6 50.75 142.3C52.35 147 54.6 151.2 57.5 154.9C60.5 158.5 64.1 161.35 68.3 163.45C72.5 165.55 77.2 166.6 82.4 166.6C87.8 166.6 92.6 165.5 96.8 163.3C101 161.1 104.5 158.15 107.3 154.45C110.2 150.65 112.4 146.45 113.9 141.85C115.4 137.15 116.15 132.45 116.15 127.75C116.15 122.75 115.35 117.95 113.75 113.35C112.25 108.65 110 104.5 107 100.9C104 97.2 100.4 94.3 96.2 92.2C92.1 90.1 87.5 89.05 82.4 89.05C77 89.05 72.2 90.15 68 92.35C63.8 94.55 60.25 97.5 57.35 101.2C54.45 104.9 52.2 109.05 50.6 113.65C49.1 118.25 48.35 122.95 48.35 127.75ZM223.843 166.15V181H150.793V74.5H222.493V89.35H167.593V119.65H215.143V133.6H167.593V166.15H223.843Z" fill="white"/>
</svg>
