<svg width="41" height="40" viewBox="0 0 41 40" fill="none" xmlns="http://www.w3.org/2000/svg">
<path d="M21.8715 18.7688H17.7402V15.0562H21.8715V18.7688ZM21.8715 6H17.7402V9.79375H21.8715V6ZM26.759 15.05H22.6277V18.7625H26.759V15.05ZM16.9902 10.5437H12.859V14.3H16.9902V10.5437ZM21.8715 10.5437H17.7402V14.3H21.8715V10.5437ZM39.1715 16.7937C38.2715 16.1875 36.1965 15.9688 34.6027 16.2688C34.3965 14.7688 33.559 13.4625 32.034 12.2875L31.159 11.7063L30.5777 12.5813C29.4277 14.3188 29.1152 17.1813 30.3465 19.0688C29.8027 19.3625 28.734 19.7625 27.3215 19.7375H0.152724C-0.391026 22.9125 0.515224 27.0375 2.90272 29.8687C5.22147 32.6125 8.69647 34.0063 13.2402 34.0063C23.0777 34.0063 30.359 29.475 33.7652 21.2437C35.1027 21.2687 37.9902 21.25 39.4715 18.4187C39.5652 18.2625 39.884 17.5938 40.0027 17.35L39.1715 16.7937ZM7.22772 15.05H3.10272V18.7625H7.23397V15.05H7.22772ZM12.109 15.05H7.97772V18.7625H12.109V15.05ZM16.9902 15.05H12.859V18.7625H16.9902V15.05ZM12.109 10.5437H7.97772V14.3H12.109V10.5437Z" fill="#E72889"/>
</svg>
