<svg width="41" height="40" viewBox="0 0 41 40" fill="none" xmlns="http://www.w3.org/2000/svg">
<path d="M39.245 18.2175L21.78 0.754986C21.5409 0.51574 21.257 0.325953 20.9445 0.196468C20.632 0.0669822 20.297 0.000335693 19.9588 0.000335693C19.6205 0.000335693 19.2855 0.0669822 18.973 0.196468C18.6606 0.325953 18.3766 0.51574 18.1375 0.754986L14.5125 4.37999L19.1125 8.97999C19.655 8.79476 20.2387 8.76578 20.7969 8.89636C21.3551 9.02694 21.8653 9.31181 22.2693 9.71847C22.6734 10.1251 22.955 10.6372 23.082 11.1962C23.2089 11.7552 23.1762 12.3387 22.9875 12.88L27.42 17.315C28.0758 17.0841 28.7906 17.0834 29.4469 17.313C30.1031 17.5426 30.6616 17.9889 31.0304 18.5782C31.3991 19.1676 31.5562 19.865 31.4757 20.5556C31.3952 21.2461 31.0819 21.8887 30.5875 22.3775C30.087 22.8811 29.4271 23.1953 28.7206 23.2664C28.0142 23.3376 27.3049 23.1612 26.714 22.7675C26.1231 22.3737 25.6873 21.7871 25.4809 21.1077C25.2745 20.4283 25.3104 19.6983 25.5825 19.0425L21.45 14.9075V25.79C22.0781 26.1009 22.5808 26.6177 22.874 27.2543C23.1673 27.8909 23.2336 28.6087 23.0618 29.2882C22.89 29.9677 22.4904 30.5678 21.9298 30.9885C21.3692 31.4091 20.6813 31.6249 19.9809 31.5999C19.2805 31.5749 18.6097 31.3106 18.0806 30.851C17.5514 30.3914 17.1957 29.7644 17.0728 29.0744C16.9499 28.3843 17.0672 27.673 17.4051 27.059C17.7431 26.445 18.2813 25.9653 18.93 25.7V14.7175C18.5557 14.5641 18.2155 14.3382 17.929 14.0527C17.6424 13.7673 17.4152 13.4279 17.2604 13.0542C17.1056 12.6805 17.0264 12.2799 17.0271 11.8754C17.0279 11.4709 17.1088 11.0706 17.265 10.6975L12.7325 6.16249L0.757504 18.1375C0.518258 18.3766 0.328471 18.6605 0.198985 18.973C0.0694999 19.2855 0.00285339 19.6205 0.00285339 19.9587C0.00285339 20.297 0.0694999 20.6319 0.198985 20.9444C0.328471 21.2569 0.518258 21.5409 0.757504 21.78L18.2225 39.245C18.4616 39.4842 18.7456 39.674 19.0581 39.8035C19.3705 39.933 19.7055 39.9996 20.0438 39.9996C20.382 39.9996 20.717 39.933 21.0295 39.8035C21.342 39.674 21.6259 39.4842 21.865 39.245L39.2475 21.8625C39.7301 21.3792 40.0011 20.7242 40.0011 20.0412C40.0011 19.3583 39.7301 18.7033 39.2475 18.22" fill="#E72889"/>
</svg>
