<svg width="40" height="40" viewBox="0 0 40 40" fill="none" xmlns="http://www.w3.org/2000/svg">
<path d="M0 0V40H40V0H0ZM21.7686 31.1957C21.7686 35.0886 19.4829 36.8657 16.1529 36.8657C13.1443 36.8657 11.4029 35.3129 10.51 33.4286L13.5729 31.58C14.1629 32.6243 14.6986 33.5086 15.9929 33.5086C17.2243 33.5086 18.01 33.0257 18.01 31.1429V18.3657H21.7686V31.1957ZM30.66 36.8657C27.1686 36.8657 24.91 35.2057 23.8114 33.0257L26.8743 31.2586C27.6786 32.5714 28.7314 33.5443 30.58 33.5443C32.1329 33.5443 33.1343 32.7671 33.1343 31.6871C33.1343 30.4014 32.1157 29.9457 30.3929 29.1871L29.4557 28.7857C26.7414 27.6343 24.9471 26.1786 24.9471 23.1157C24.9471 20.2943 27.0986 18.1514 30.4471 18.1514C32.84 18.1514 34.5543 18.9814 35.7871 21.16L32.8586 23.0357C32.2157 21.8843 31.5186 21.4286 30.4386 21.4286C29.3414 21.4286 28.6443 22.1257 28.6443 23.0357C28.6443 24.1614 29.3414 24.6157 30.9571 25.3214L31.8943 25.7229C35.0914 27.0886 36.8857 28.4914 36.8857 31.6329C36.8857 35.0086 34.2243 36.8643 30.6614 36.8643L30.66 36.8657Z" fill="#E72889"/>
</svg>
