<svg width="41" height="41" viewBox="0 0 41 41" fill="none" xmlns="http://www.w3.org/2000/svg">
<path d="M29.6863 37.5054C29.5375 37.5841 29.55 37.6091 29.6925 37.5366C29.7364 37.5187 29.7767 37.4928 29.8113 37.4604C29.8113 37.4341 29.8113 37.4341 29.6863 37.5054ZM29.9862 37.3429C29.915 37.4016 29.915 37.4016 30 37.3629C30.0314 37.3481 30.0601 37.3283 30.085 37.3041C30.085 37.2704 30.065 37.2779 29.9862 37.3429ZM30.1813 37.2254C30.11 37.2841 30.11 37.2841 30.195 37.2454C30.2265 37.2303 30.2553 37.21 30.28 37.1854C30.28 37.1541 30.26 37.1604 30.1813 37.2254ZM30.3787 37.1091C30.3075 37.1679 30.3075 37.1679 30.39 37.1278C30.4363 37.1029 30.475 37.0766 30.475 37.0691C30.475 37.0379 30.455 37.0441 30.3787 37.1091ZM30.645 36.9329C30.5088 37.0241 30.4613 37.0829 30.5863 37.0179C30.67 36.9666 30.8125 36.8541 30.7875 36.8541C30.7337 36.8741 30.6887 36.9079 30.6437 36.9329H30.645ZM18.6912 0.0128496C18.6 0.0190996 18.3263 0.0440996 18.0863 0.0640997C12.4012 0.5791 7.0825 3.6391 3.71125 8.35285C1.84821 10.9382 0.637198 13.9352 0.18125 17.0891C0.02 18.1891 0 18.5141 0 20.0054C0 21.4953 0.02 21.8154 0.18125 22.9154C1.27 30.4291 6.615 36.7366 13.86 39.0741C15.1638 39.4904 16.53 39.7779 18.0863 39.9541C18.6912 40.0191 21.3075 40.0191 21.9125 39.9541C24.6025 39.6541 26.8738 38.9904 29.1213 37.8441C29.4663 37.6691 29.5312 37.6229 29.485 37.5841C28.3886 36.1348 27.3015 34.6785 26.2238 33.2154L23.0275 28.8991L19.0238 22.9679C17.692 20.9819 16.3465 19.0052 14.9875 17.0379C14.9738 17.0379 14.9562 19.6741 14.9487 22.8891C14.935 28.5204 14.935 28.7491 14.8637 28.8791C14.7954 29.0361 14.673 29.1634 14.5187 29.2379C14.395 29.2966 14.2838 29.3091 13.6925 29.3091H13.0163L12.84 29.1991C12.7296 29.1283 12.6399 29.0295 12.58 28.9129L12.495 28.7366L12.5013 20.8979L12.515 13.0591L12.6388 12.9029C12.7178 12.8068 12.8151 12.7273 12.925 12.6691C13.0887 12.5904 13.1538 12.5779 13.83 12.5779C14.6237 12.5779 14.755 12.6091 14.9637 12.8379C16.5857 15.2502 18.1936 17.6719 19.7875 20.1029C22.3862 24.0429 25.9338 29.4191 27.6775 32.0566L30.8488 36.8554L31.005 36.7516C32.5291 35.7388 33.9102 34.5259 35.1113 33.1454C37.6307 30.2617 39.2655 26.713 39.82 22.9241C39.9813 21.8241 40.0013 21.4979 40.0013 20.0079C40.0013 18.5166 39.9813 18.1979 39.82 17.0979C38.7313 9.5841 33.3862 3.2766 26.1413 0.93785C24.7872 0.509001 23.3936 0.217122 21.9812 0.0665997C21.6025 0.0278496 19.0175 -0.0184004 18.6925 0.0153496L18.6912 0.0128496ZM26.875 12.1091C26.968 12.1548 27.0509 12.2185 27.119 12.2967C27.187 12.3748 27.2388 12.4657 27.2712 12.5641C27.305 12.6691 27.3113 14.8429 27.305 19.7391L27.2913 26.7691L26.055 24.8691L24.8113 22.9679V17.8641C24.8113 14.5554 24.825 12.7004 24.8425 12.6091C24.9037 12.3999 25.044 12.2227 25.2337 12.1154C25.3888 12.0366 25.4487 12.0304 26.0675 12.0304C26.6462 12.0304 26.7438 12.0366 26.8738 12.1091H26.875Z" fill="#E72889"/>
</svg>
