<svg width="40" height="40" viewBox="0 0 40 40" fill="none" xmlns="http://www.w3.org/2000/svg">
<path d="M20.3664 40C19.7954 40 19.2644 39.8514 18.7685 39.5943L13.7111 36.6924C12.9514 36.2883 13.3321 36.1414 13.5608 36.0679C14.586 35.7373 14.7763 35.6639 15.8416 35.0745C15.9551 35.001 16.1087 35.0377 16.2223 35.1112L20.1009 37.3536C20.2512 37.427 20.4432 37.427 20.5567 37.3536L35.729 28.865C35.8793 28.7915 35.9561 28.6446 35.9561 28.4609V11.5205C35.9561 11.3368 35.8809 11.1899 35.729 11.1164L20.5567 2.6662C20.4048 2.59273 20.2144 2.59273 20.1009 2.6662L4.92862 11.1164C4.77668 11.1899 4.69987 11.3735 4.69987 11.5205V28.4609C4.69987 28.6078 4.77668 28.7915 4.92862 28.865L9.07273 31.1808C11.3168 32.2828 12.7226 30.9971 12.7226 29.7115V12.9914C12.7226 12.771 12.913 12.5506 13.1801 12.5506H15.1186C15.3474 12.5506 15.5744 12.7343 15.5744 12.9914V29.7098C15.5744 32.6134 13.9398 34.3031 11.088 34.3031C10.2131 34.3031 9.52855 34.3031 7.59007 33.3848L3.59789 31.1808C3.11683 30.9163 2.71511 30.5281 2.43421 30.0564C2.15331 29.5848 2.00342 29.0466 2.00002 28.4976V11.5572C2.00002 10.4552 2.60777 9.42669 3.59789 8.8757L18.7702 0.385428C19.2641 0.132116 19.8113 0 20.3664 0C20.9215 0 21.4686 0.132116 21.9626 0.385428L37.1365 8.87403C38.125 9.42502 38.7327 10.4535 38.7327 11.5555V28.496C38.7327 29.598 38.125 30.6265 37.1365 31.1791L21.9626 39.6661C21.4588 39.8845 20.9155 39.997 20.3664 39.9967V40ZM25.0431 28.3507C18.3895 28.3507 17.0204 25.4121 17.0204 22.9126C17.0204 22.6922 17.2107 22.4718 17.4762 22.4718H19.4531C19.6818 22.4718 19.8705 22.6187 19.8705 22.8391C20.176 24.786 21.0509 25.741 25.0815 25.741C28.2756 25.741 29.6447 25.0431 29.6447 23.3901C29.6447 22.4351 29.264 21.7372 24.2834 21.2596C20.1376 20.8539 17.553 19.974 17.553 16.7766C17.553 13.7996 20.1376 12.0347 24.4738 12.0347C29.3408 12.0347 31.7368 13.6526 32.0407 17.1806C32.0373 17.3001 31.9971 17.4155 31.9255 17.5112C31.8504 17.5847 31.7368 17.6582 31.6216 17.6582H29.6447C29.5487 17.6558 29.456 17.6223 29.3807 17.5627C29.3054 17.503 29.2516 17.4205 29.2273 17.3276C28.7698 15.3073 27.591 14.6444 24.4738 14.6444C20.9741 14.6444 20.5567 15.8199 20.5567 16.7014C20.5567 17.7684 21.0509 18.0989 25.7661 18.6867C30.4428 19.2744 32.6485 20.1192 32.6485 23.2783C32.6101 26.5141 29.8735 28.3507 25.0431 28.3507Z" fill="#E72889"/>
</svg>
