<svg width="40" height="40" viewBox="0 0 40 40" fill="none" xmlns="http://www.w3.org/2000/svg">
<path d="M40 19.815C40 17.165 36.6817 14.6533 31.5933 13.0967C32.7683 7.91167 32.2467 3.785 29.9467 2.46333C29.3894 2.1512 28.7586 1.99409 28.12 2.00833V3.825C28.495 3.825 28.7967 3.9 29.05 4.03833C30.1583 4.675 30.64 7.095 30.265 10.21C30.175 10.9767 30.0283 11.7833 29.8483 12.6067C28.1444 12.1961 26.415 11.8993 24.6717 11.7183C23.6331 10.2855 22.5 8.92357 21.28 7.64167C23.9383 5.17167 26.4333 3.81833 28.13 3.81833V2C25.8867 2 22.9517 3.59833 19.9833 6.37C17.0167 3.61667 14.08 2.03333 11.8383 2.03333V3.85C13.5267 3.85 16.03 5.19667 18.6883 7.65C17.5467 8.85 16.405 10.21 15.32 11.7183C13.5731 11.8973 11.8406 12.1969 10.135 12.615C9.94667 11.8 9.80833 11.01 9.71 10.2517C9.32667 7.135 9.8 4.715 10.9017 4.07167C11.145 3.925 11.4633 3.85833 11.8383 3.85833V2.04167C11.155 2.04167 10.5333 2.18833 9.99667 2.49667C7.705 3.81833 7.19167 7.935 8.37333 13.105C3.30167 14.6717 0 17.1733 0 19.815C0 22.465 3.31833 24.9767 8.40667 26.5317C7.23167 31.7183 7.75333 35.845 10.0533 37.165C10.5833 37.475 11.2033 37.6217 11.8867 37.6217C14.13 37.6217 17.065 36.0233 20.0333 33.2517C23 36.0067 25.935 37.5883 28.1783 37.5883C28.8218 37.6019 29.4574 37.4443 30.02 37.1317C32.3117 35.8117 32.825 31.695 31.6433 26.525C36.6983 24.9683 40 22.4567 40 19.815ZM29.3833 14.3767C29.0666 15.4664 28.6996 16.5409 28.2833 17.5967C27.6019 16.2713 26.8538 14.9813 26.0417 13.7317C27.2 13.9033 28.3167 14.115 29.385 14.3767H29.3833ZM25.65 23.06C25.015 24.16 24.3617 25.205 23.685 26.175C21.2388 26.3906 18.7784 26.3934 16.3317 26.1833C14.9282 24.1786 13.7009 22.0563 12.6633 19.84C13.6993 17.6185 14.9214 15.4887 16.3167 13.4733C18.7623 13.2573 21.2221 13.2539 23.6683 13.4633C24.345 14.4333 25.0067 15.47 25.6417 16.5633C26.2617 17.63 26.825 18.7133 27.3383 19.8067C26.8193 20.9133 26.2561 21.9986 25.65 23.06ZM28.2833 22C28.7233 23.0917 29.1 24.185 29.4083 25.245C28.3417 25.5067 27.215 25.7267 26.05 25.8967C26.8587 24.6357 27.6041 23.3352 28.2833 22ZM20.0167 30.7C19.2583 29.9167 18.5 29.045 17.75 28.09C18.4833 28.1233 19.2333 28.1483 19.9917 28.1483C20.7583 28.1483 21.5167 28.1317 22.2583 28.09C21.525 29.045 20.7667 29.9167 20.0167 30.7ZM13.95 25.8967C12.8262 25.7338 11.7106 25.5192 10.6067 25.2533C10.9083 24.2017 11.2833 23.1167 11.7067 22.0333C12.0417 22.6833 12.3933 23.3367 12.7767 23.99C13.16 24.6417 13.55 25.2783 13.95 25.8967ZM19.975 8.93C20.7333 9.71333 21.4917 10.585 22.2417 11.54C21.5083 11.5067 20.7583 11.4817 20 11.4817C19.2333 11.4817 18.475 11.4983 17.7333 11.54C18.4667 10.585 19.225 9.71333 19.975 8.93ZM13.9417 13.7333C13.1331 14.9916 12.3877 16.2893 11.7083 17.6217C11.2804 16.5591 10.9049 15.4761 10.5833 14.3767C11.65 14.1233 12.7767 13.9033 13.9417 13.7333ZM6.56333 23.94C3.67667 22.71 1.81 21.095 1.81 19.815C1.81 18.535 3.67667 16.9117 6.56333 15.69C7.26333 15.3883 8.03 15.1183 8.82167 14.8667C9.28667 16.4633 9.89833 18.1267 10.655 19.8317C9.94061 21.4353 9.33643 23.0858 8.84667 24.7717C8.07242 24.5319 7.31039 24.2544 6.56333 23.94ZM10.95 35.59C9.84167 34.9567 9.36 32.5333 9.735 29.42C9.825 28.6533 9.97167 27.845 10.1517 27.0217C11.7483 27.4133 13.4933 27.715 15.3283 27.9117C16.367 29.3445 17.5 30.7064 18.72 31.9883C16.0617 34.4583 13.5667 35.8117 11.87 35.8117C11.5499 35.8152 11.2339 35.7396 10.95 35.5917V35.59ZM30.29 29.3783C30.6733 32.4933 30.2 34.915 29.0983 35.5583C28.855 35.705 28.5367 35.77 28.1617 35.77C26.4733 35.77 23.97 34.425 21.3117 31.97C22.4533 30.7733 23.595 29.4117 24.68 27.9033C26.4269 27.7244 28.1594 27.4248 29.865 27.0067C30.0533 27.83 30.1983 28.62 30.29 29.3783ZM33.4283 23.94C32.7283 24.2417 31.9617 24.5117 31.17 24.7633C30.6716 23.0689 30.0591 21.4101 29.3367 19.7983C30.0867 18.1033 30.6883 16.4483 31.145 14.8583C31.9533 15.11 32.7183 15.3883 33.4367 15.69C36.3233 16.92 38.19 18.535 38.19 19.815C38.1817 21.095 36.315 22.7183 33.4283 23.94Z" fill="#E72889"/>
<path d="M19.9917 23.5417C20.9801 23.5417 21.9279 23.149 22.6268 22.4502C23.3257 21.7513 23.7183 20.8034 23.7183 19.815C23.7183 18.8266 23.3257 17.8787 22.6268 17.1798C21.9279 16.481 20.9801 16.0883 19.9917 16.0883C19.0033 16.0883 18.0554 16.481 17.3565 17.1798C16.6576 17.8787 16.265 18.8266 16.265 19.815C16.265 20.8034 16.6576 21.7513 17.3565 22.4502C18.0554 23.149 19.0033 23.5417 19.9917 23.5417Z" fill="#E72889"/>
</svg>
