<svg width="40" height="40" viewBox="0 0 40 40" fill="none" xmlns="http://www.w3.org/2000/svg">
<path d="M30.8333 15.85C29.5834 15.4195 28.4801 14.6455 27.65 13.6167C26.7351 12.4704 25.5701 11.5486 24.2442 10.9217C22.9182 10.2948 21.4665 9.97957 20 10C18.0273 9.86029 16.0743 10.4687 14.53 11.7042C12.9857 12.9396 11.9634 14.7114 11.6667 16.6667C12.2511 15.6887 13.1308 14.9214 14.179 14.4752C15.2272 14.0289 16.39 13.9268 17.5 14.1833C18.7478 14.6263 19.8493 15.4049 20.6833 16.4333C21.6033 17.5705 22.7705 18.4828 24.0961 19.1008C25.4218 19.7189 26.8709 20.0264 28.3333 20C30.3061 20.1397 32.259 19.5313 33.8033 18.2958C35.3476 17.0604 36.3699 15.2886 36.6667 13.3333C36.0928 14.323 35.216 15.1018 34.1656 15.555C33.1152 16.0082 31.947 16.1116 30.8333 15.85ZM9.16666 24.15C10.4166 24.5805 11.5199 25.3545 12.35 26.3833C13.2649 27.5296 14.4299 28.4514 15.7558 29.0783C17.0818 29.7051 18.5335 30.0204 20 30C21.9727 30.1397 23.9257 29.5313 25.47 28.2958C27.0143 27.0604 28.0366 25.2886 28.3333 23.3333C27.7489 24.3113 26.8692 25.0786 25.821 25.5248C24.7728 25.971 23.61 26.0732 22.5 25.8167C21.2522 25.3736 20.1507 24.5951 19.3167 23.5667C18.3943 22.4324 17.2266 21.5221 15.9015 20.9043C14.5764 20.2865 13.1285 19.9773 11.6667 20C9.69394 19.8603 7.74097 20.4687 6.19667 21.7042C4.65237 22.9396 3.63006 24.7114 3.33333 26.6667C3.90717 25.677 4.78401 24.8982 5.83438 24.445C6.88476 23.9918 8.05301 23.8884 9.16666 24.15Z" fill="#E72889"/>
</svg>
