<svg width="40" height="40" viewBox="0 0 40 40" fill="none" xmlns="http://www.w3.org/2000/svg">
<path d="M31.5825 19.1325C31.5825 17.0125 30.82 15.545 30.1675 14.4025L29.9675 14.0775C29.175 12.8025 28.4825 11.6825 28.4825 10.3775C28.4825 8.80251 29.6775 7.33251 31.3625 7.33251C31.4125 7.33251 31.46 7.33751 31.5075 7.34001L31.585 7.34751C28.4254 4.44536 24.2901 2.8373 20 2.84251C17.1567 2.84105 14.3577 3.54707 11.8552 4.89694C9.3527 6.24681 7.22541 8.19811 5.665 10.575C6.065 10.5875 6.4475 10.5975 6.77 10.5975C8.5625 10.5975 11.34 10.38 11.34 10.38C12.265 10.325 12.375 11.6825 11.45 11.7925C11.45 11.7925 10.5225 11.9025 9.4875 11.955L15.7375 30.54L19.4875 19.275L16.8125 11.9525C15.89 11.8975 15.015 11.79 15.015 11.79C14.09 11.735 14.2 10.32 15.1225 10.375C15.1225 10.375 17.9575 10.5925 19.6425 10.5925C21.4375 10.5925 24.2175 10.375 24.2175 10.375C25.1425 10.32 25.25 11.68 24.325 11.79C24.325 11.79 23.395 11.8975 22.3625 11.9525L28.5625 30.395L30.2725 24.6775L30.4075 24.245C31.0825 22.095 31.58 20.5075 31.58 19.13L31.5825 19.1325ZM2.8425 20C2.84233 23.2219 3.7492 26.3787 5.45932 29.1092C7.16945 31.8398 9.61375 34.0337 12.5125 35.44L4.325 13.015C3.34458 15.213 2.83939 17.5933 2.8425 20Z" fill="#E72889"/>
<path d="M15.1525 36.4575L20.3025 21.5L25.575 35.95C25.61 36.0325 25.65 36.11 25.6975 36.185C22.2986 37.3824 18.6087 37.4778 15.1525 36.4575ZM35.0525 11.7675C35.1275 12.315 35.17 12.9 35.17 13.5325C35.17 15.2725 34.845 17.23 33.865 19.6775L28.625 34.8275C32.4918 32.5809 35.3281 28.9127 36.5292 24.605C37.7304 20.2973 37.2014 15.6908 35.055 11.7675H35.0525Z" fill="#E72889"/>
<path fill-rule="evenodd" clip-rule="evenodd" d="M0 20C0 8.9725 8.9725 0 20 0C31.025 0 40 8.9725 40 20C40 31.0275 31.025 40 20 40C8.9725 40 0 31.0275 0 20ZM0.9175 20C0.9175 30.5225 9.4775 39.0825 20 39.0825C30.52 39.0825 39.08 30.5225 39.08 20C39.08 9.475 30.52 0.9175 20 0.9175C9.475 0.9175 0.9175 9.475 0.9175 20Z" fill="#E72889"/>
</svg>
