<svg width="61" height="60" viewBox="0 0 61 60" fill="none" xmlns="http://www.w3.org/2000/svg">
<path d="M53 7.5H8C5.92893 7.5 4.25 9.17893 4.25 11.25V41.25C4.25 43.3211 5.92893 45 8 45H53C55.0711 45 56.75 43.3211 56.75 41.25V11.25C56.75 9.17893 55.0711 7.5 53 7.5Z" stroke="#E72889" stroke-width="2" stroke-linejoin="round"/>
<path d="M36.125 52.5L35.1875 45H25.8125L24.875 52.5H36.125Z" fill="#E72889" stroke="#E72889" stroke-width="2" stroke-linecap="round" stroke-linejoin="round"/>
<path d="M43.625 52.5H17.375" stroke="#E72889" stroke-width="2" stroke-linecap="round" stroke-linejoin="round"/>
<path d="M4.25 35.625V41.25C4.25278 42.2437 4.64877 43.1959 5.35142 43.8986C6.05408 44.6012 7.00629 44.9972 8 45H53C53.9937 44.9972 54.9459 44.6012 55.6486 43.8986C56.3512 43.1959 56.7472 42.2437 56.75 41.25V35.625H4.25ZM30.5 43.125C30.1292 43.125 29.7666 43.015 29.4583 42.809C29.15 42.603 28.9096 42.3101 28.7677 41.9675C28.6258 41.6249 28.5887 41.2479 28.661 40.8842C28.7334 40.5205 28.912 40.1864 29.1742 39.9242C29.4364 39.662 29.7705 39.4834 30.1342 39.411C30.4979 39.3387 30.8749 39.3758 31.2175 39.5177C31.5601 39.6596 31.853 39.9 32.059 40.2083C32.265 40.5166 32.375 40.8792 32.375 41.25C32.375 41.7473 32.1775 42.2242 31.8258 42.5758C31.4742 42.9275 30.9973 43.125 30.5 43.125Z" fill="#E72889"/>
</svg>
