<svg width="61" height="60" viewBox="0 0 61 60" fill="none" xmlns="http://www.w3.org/2000/svg">
<path d="M19.25 36.1547L9.55859 40.5035C7.49609 41.441 7.49609 42.9762 9.55859 43.9137L26.9023 51.8238C28.8816 52.725 32.1395 52.725 34.1187 51.8238L51.4625 43.9137C53.525 42.9762 53.525 41.441 51.4625 40.5035L42.0945 35.9953M51.4531 16.1309L33.95 8.15039C32.0527 7.2832 28.9473 7.2832 27.05 8.15039L9.55859 16.1309C7.49609 17.0684 7.49609 18.6023 9.55859 19.5398L26.9023 27.45C28.8816 28.3523 32.1395 28.3523 34.1187 27.45L51.4625 19.5398C53.5156 18.6023 53.5156 17.0672 51.4531 16.1309Z" stroke="#BD4EF4" stroke-width="2" stroke-linecap="round" stroke-linejoin="round"/>
<path d="M19.25 23.9625L9.54687 28.3172C7.48438 29.2547 7.48438 30.7899 9.54687 31.7274L26.8906 39.6364C28.8699 40.5387 32.1277 40.5387 34.107 39.6364L51.4508 31.7274C53.525 30.7899 53.525 29.2547 51.4625 28.3172L41.75 23.9625" stroke="#BD4EF4" stroke-width="2" stroke-linecap="round" stroke-linejoin="round"/>
</svg>
